# xmcd
#
# Track frame offsets: 
#        150
#        21581
#        47382
#        60998
#        77657
#        94954
#        109519
#        122962
#        137190
#        153567
#        168755
#
# Disc length: 2482 seconds
#
# Revision: 4
# Processed by: cddbd v1.5.2PL0 Copyright (c) Steve Scherf et al.
# Submitted via: ExactAudioCopy v0.99pb5
#
DISCID=8909b00b
DTITLE=Eleni Mandell - Wishbone
DYEAR=1998
DGENRE=Indie
TTITLE0=I'm Your Girl
TTITLE1=Wishbone
TTITLE2=Sylvia
TTITLE3=Tristeza
TTITLE4=Meant To Be In Love
TTITLE5=Normandie
TTITLE6=Snake Song
TTITLE7=To Dream Of Sarah
TTITLE8=Careless Driver
TTITLE9=Hack Jimmy
TTITLE10=Nickel Plated Man
EXTD=
EXTT0=
EXTT1=
EXTT2=
EXTT3=
EXTT4=
EXTT5=
EXTT6=
EXTT7=
EXTT8=
EXTT9=
EXTT10=
PLAYORDER=
